STARTFONT 2.1
FONT -FontForge-Peking Assignment-Book-R-Normal--14-100-100-100-P-40-ISO10646-1
SIZE 10 100 100
FONTBOUNDINGBOX 8 10 -2 -2
COMMENT "Generated by fontforge, http://fontforge.sourceforge.net"
COMMENT "Copyright NAL 2014"
STARTPROPERTIES 39
FOUNDRY "FontForge"
FAMILY_NAME "Peking Assignment"
WEIGHT_NAME "Book"
SLANT "R"
SETWIDTH_NAME "Normal"
ADD_STYLE_NAME ""
PIXEL_SIZE 14
POINT_SIZE 100
RESOLUTION_X 100
RESOLUTION_Y 100
SPACING "P"
AVERAGE_WIDTH 40
CHARSET_REGISTRY "ISO10646"
CHARSET_ENCODING "1"
FONTNAME_REGISTRY ""
CHARSET_COLLECTIONS "ISO10646-1"
FONT_NAME "Peking-Assignment"
FACE_NAME "Peking Assignment Regular"
COPYRIGHT "Copyright NAL 2014"
FONT_VERSION "1.0"
FONT_ASCENT 11
FONT_DESCENT 3
UNDERLINE_POSITION 1
UNDERLINE_THICKNESS 1
X_HEIGHT 3
CAP_HEIGHT 5
RAW_ASCENT 799
RAW_DESCENT 200
NORM_SPACE 2
RELATIVE_WEIGHT 40
RELATIVE_SETWIDTH 50
SUPERSCRIPT_X 0
SUPERSCRIPT_Y 7
SUPERSCRIPT_SIZE 7
SUBSCRIPT_X 0
SUBSCRIPT_Y 0
SUBSCRIPT_SIZE 7
AVG_LOWERCASE_WIDTH 40
AVG_UPPERCASE_WIDTH 50
ENDPROPERTIES
CHARS 101
STARTCHAR space
ENCODING 32
SWIDTH 125 0
DWIDTH 2 0
BBX 1 1 0 0
BITMAP
00
ENDCHAR
STARTCHAR exclam
ENCODING 33
SWIDTH 125 0
DWIDTH 2 0
BBX 1 6 0 0
BITMAP
80
80
80
80
00
80
ENDCHAR
STARTCHAR quotedbl
ENCODING 34
SWIDTH 187 0
DWIDTH 3 0
BBX 2 1 0 5
BITMAP
C0
ENDCHAR
STARTCHAR numbersign
ENCODING 35
SWIDTH 375 0
DWIDTH 5 0
BBX 4 6 0 0
BITMAP
50
50
D0
F0
50
50
ENDCHAR
STARTCHAR dollar
ENCODING 36
SWIDTH 375 0
DWIDTH 5 0
BBX 4 8 0 -1
BITMAP
20
F0
B0
B0
30
B0
F0
20
ENDCHAR
STARTCHAR percent
ENCODING 37
SWIDTH 375 0
DWIDTH 5 0
BBX 5 7 0 0
BITMAP
48
A8
50
20
50
A8
90
ENDCHAR
STARTCHAR ampersand
ENCODING 38
SWIDTH 375 0
DWIDTH 5 0
BBX 4 6 0 0
BITMAP
E0
80
90
90
90
F0
ENDCHAR
STARTCHAR quotesingle
ENCODING 39
SWIDTH 125 0
DWIDTH 2 0
BBX 1 1 0 5
BITMAP
80
ENDCHAR
STARTCHAR parenleft
ENCODING 40
SWIDTH 187 0
DWIDTH 3 0
BBX 2 6 0 0
BITMAP
C0
80
80
80
80
C0
ENDCHAR
STARTCHAR parenright
ENCODING 41
SWIDTH 187 0
DWIDTH 3 0
BBX 2 6 0 0
BITMAP
C0
40
40
40
40
C0
ENDCHAR
STARTCHAR asterisk
ENCODING 42
SWIDTH 250 0
DWIDTH 4 0
BBX 3 2 0 4
BITMAP
E0
40
ENDCHAR
STARTCHAR plus
ENCODING 43
SWIDTH 250 0
DWIDTH 4 0
BBX 2 2 1 2
BITMAP
C0
80
ENDCHAR
STARTCHAR comma
ENCODING 44
SWIDTH 125 0
DWIDTH 2 0
BBX 1 1 0 0
BITMAP
80
ENDCHAR
STARTCHAR hyphen
ENCODING 45
SWIDTH 250 0
DWIDTH 4 0
BBX 3 1 0 3
BITMAP
E0
ENDCHAR
STARTCHAR period
ENCODING 46
SWIDTH 125 0
DWIDTH 2 0
BBX 1 1 0 0
BITMAP
80
ENDCHAR
STARTCHAR slash
ENCODING 47
SWIDTH 375 0
DWIDTH 5 0
BBX 4 6 0 0
BITMAP
10
10
10
80
80
80
ENDCHAR
STARTCHAR zero
ENCODING 48
SWIDTH 375 0
DWIDTH 5 0
BBX 4 6 0 0
BITMAP
F0
90
90
90
90
F0
ENDCHAR
STARTCHAR one
ENCODING 49
SWIDTH 187 0
DWIDTH 3 0
BBX 2 6 0 0
BITMAP
C0
40
40
40
40
40
ENDCHAR
STARTCHAR two
ENCODING 50
SWIDTH 375 0
DWIDTH 5 0
BBX 4 6 0 0
BITMAP
F0
90
10
80
90
F0
ENDCHAR
STARTCHAR three
ENCODING 51
SWIDTH 375 0
DWIDTH 5 0
BBX 4 6 0 0
BITMAP
F0
90
10
10
90
F0
ENDCHAR
STARTCHAR four
ENCODING 52
SWIDTH 375 0
DWIDTH 5 0
BBX 4 6 0 0
BITMAP
90
90
90
B0
10
10
ENDCHAR
STARTCHAR five
ENCODING 53
SWIDTH 375 0
DWIDTH 5 0
BBX 4 6 0 0
BITMAP
F0
90
F0
10
90
F0
ENDCHAR
STARTCHAR six
ENCODING 54
SWIDTH 375 0
DWIDTH 5 0
BBX 4 6 0 0
BITMAP
F0
90
B0
90
90
F0
ENDCHAR
STARTCHAR seven
ENCODING 55
SWIDTH 375 0
DWIDTH 5 0
BBX 4 6 0 0
BITMAP
F0
90
10
80
80
80
ENDCHAR
STARTCHAR eight
ENCODING 56
SWIDTH 375 0
DWIDTH 5 0
BBX 4 6 0 0
BITMAP
F0
90
90
90
90
F0
ENDCHAR
STARTCHAR nine
ENCODING 57
SWIDTH 375 0
DWIDTH 5 0
BBX 4 6 0 0
BITMAP
F0
90
F0
10
90
F0
ENDCHAR
STARTCHAR colon
ENCODING 58
SWIDTH 125 0
DWIDTH 2 0
BBX 1 3 0 0
BITMAP
80
00
80
ENDCHAR
STARTCHAR semicolon
ENCODING 59
SWIDTH 125 0
DWIDTH 2 0
BBX 1 3 0 1
BITMAP
80
80
80
ENDCHAR
STARTCHAR less
ENCODING 60
SWIDTH 187 0
DWIDTH 3 0
BBX 2 6 0 0
BITMAP
C0
80
80
80
80
C0
ENDCHAR
STARTCHAR equal
ENCODING 61
SWIDTH 250 0
DWIDTH 4 0
BBX 3 2 0 2
BITMAP
E0
E0
ENDCHAR
STARTCHAR greater
ENCODING 62
SWIDTH 187 0
DWIDTH 3 0
BBX 2 6 0 0
BITMAP
C0
40
40
40
40
C0
ENDCHAR
STARTCHAR question
ENCODING 63
SWIDTH 375 0
DWIDTH 5 0
BBX 4 6 0 0
BITMAP
F0
90
10
40
00
40
ENDCHAR
STARTCHAR at
ENCODING 64
SWIDTH 375 0
DWIDTH 5 0
BBX 4 6 0 0
BITMAP
F0
90
B0
B0
00
F0
ENDCHAR
STARTCHAR A
ENCODING 65
SWIDTH 375 0
DWIDTH 5 0
BBX 4 6 0 0
BITMAP
F0
90
90
90
90
90
ENDCHAR
STARTCHAR B
ENCODING 66
SWIDTH 375 0
DWIDTH 5 0
BBX 4 6 0 0
BITMAP
F0
90
90
90
90
F0
ENDCHAR
STARTCHAR C
ENCODING 67
SWIDTH 375 0
DWIDTH 5 0
BBX 4 6 0 0
BITMAP
F0
90
80
80
90
F0
ENDCHAR
STARTCHAR D
ENCODING 68
SWIDTH 375 0
DWIDTH 5 0
BBX 4 6 0 0
BITMAP
F0
90
90
90
90
F0
ENDCHAR
STARTCHAR E
ENCODING 69
SWIDTH 375 0
DWIDTH 5 0
BBX 4 6 0 0
BITMAP
F0
90
F0
80
90
F0
ENDCHAR
STARTCHAR F
ENCODING 70
SWIDTH 375 0
DWIDTH 5 0
BBX 4 6 0 0
BITMAP
F0
90
B0
80
80
80
ENDCHAR
STARTCHAR G
ENCODING 71
SWIDTH 375 0
DWIDTH 5 0
BBX 4 6 0 0
BITMAP
F0
90
B0
90
90
F0
ENDCHAR
STARTCHAR H
ENCODING 72
SWIDTH 375 0
DWIDTH 5 0
BBX 4 6 0 0
BITMAP
90
90
90
90
90
90
ENDCHAR
STARTCHAR I
ENCODING 73
SWIDTH 125 0
DWIDTH 2 0
BBX 1 6 0 0
BITMAP
80
80
80
80
80
80
ENDCHAR
STARTCHAR J
ENCODING 74
SWIDTH 375 0
DWIDTH 5 0
BBX 4 6 0 0
BITMAP
10
10
10
10
90
F0
ENDCHAR
STARTCHAR K
ENCODING 75
SWIDTH 375 0
DWIDTH 5 0
BBX 4 6 0 0
BITMAP
90
90
90
90
90
90
ENDCHAR
STARTCHAR L
ENCODING 76
SWIDTH 375 0
DWIDTH 5 0
BBX 4 6 0 0
BITMAP
C0
80
80
80
90
F0
ENDCHAR
STARTCHAR M
ENCODING 77
SWIDTH 500 0
DWIDTH 7 0
BBX 6 6 0 0
BITMAP
FC
94
94
94
94
94
ENDCHAR
STARTCHAR N
ENCODING 78
SWIDTH 375 0
DWIDTH 5 0
BBX 4 6 0 0
BITMAP
F0
90
90
90
90
90
ENDCHAR
STARTCHAR O
ENCODING 79
SWIDTH 375 0
DWIDTH 5 0
BBX 4 6 0 0
BITMAP
F0
90
90
90
90
F0
ENDCHAR
STARTCHAR P
ENCODING 80
SWIDTH 375 0
DWIDTH 5 0
BBX 4 6 0 0
BITMAP
F0
90
90
80
80
80
ENDCHAR
STARTCHAR Q
ENCODING 81
SWIDTH 375 0
DWIDTH 5 0
BBX 4 7 0 -1
BITMAP
F0
90
90
B0
B0
F0
20
ENDCHAR
STARTCHAR R
ENCODING 82
SWIDTH 375 0
DWIDTH 5 0
BBX 4 6 0 0
BITMAP
F0
90
F0
90
90
90
ENDCHAR
STARTCHAR S
ENCODING 83
SWIDTH 375 0
DWIDTH 5 0
BBX 4 6 0 0
BITMAP
F0
90
F0
10
90
F0
ENDCHAR
STARTCHAR T
ENCODING 84
SWIDTH 375 0
DWIDTH 5 0
BBX 4 6 0 0
BITMAP
B0
B0
20
20
20
20
ENDCHAR
STARTCHAR U
ENCODING 85
SWIDTH 375 0
DWIDTH 5 0
BBX 4 6 0 0
BITMAP
90
90
90
90
90
F0
ENDCHAR
STARTCHAR V
ENCODING 86
SWIDTH 375 0
DWIDTH 5 0
BBX 4 6 0 0
BITMAP
90
90
90
90
90
F0
ENDCHAR
STARTCHAR W
ENCODING 87
SWIDTH 500 0
DWIDTH 7 0
BBX 6 6 0 0
BITMAP
94
94
94
94
94
DC
ENDCHAR
STARTCHAR X
ENCODING 88
SWIDTH 375 0
DWIDTH 5 0
BBX 4 6 0 0
BITMAP
90
90
10
90
90
90
ENDCHAR
STARTCHAR Y
ENCODING 89
SWIDTH 375 0
DWIDTH 5 0
BBX 4 6 0 0
BITMAP
90
90
10
00
20
20
ENDCHAR
STARTCHAR Z
ENCODING 90
SWIDTH 375 0
DWIDTH 5 0
BBX 4 6 0 0
BITMAP
F0
90
10
80
90
F0
ENDCHAR
STARTCHAR bracketleft
ENCODING 91
SWIDTH 187 0
DWIDTH 3 0
BBX 2 6 0 0
BITMAP
C0
80
80
80
80
C0
ENDCHAR
STARTCHAR backslash
ENCODING 92
SWIDTH 375 0
DWIDTH 5 0
BBX 4 6 0 0
BITMAP
80
80
F0
10
10
10
ENDCHAR
STARTCHAR bracketright
ENCODING 93
SWIDTH 187 0
DWIDTH 3 0
BBX 2 6 0 0
BITMAP
C0
40
40
40
40
C0
ENDCHAR
STARTCHAR asciicircum
ENCODING 94
SWIDTH 125 0
DWIDTH 2 0
BBX 1 1 0 5
BITMAP
80
ENDCHAR
STARTCHAR underscore
ENCODING 95
SWIDTH 375 0
DWIDTH 5 0
BBX 4 1 0 0
BITMAP
F0
ENDCHAR
STARTCHAR grave
ENCODING 96
SWIDTH 125 0
DWIDTH 2 0
BBX 1 1 0 5
BITMAP
80
ENDCHAR
STARTCHAR a
ENCODING 97
SWIDTH 312 0
DWIDTH 4 0
BBX 3 4 0 0
BITMAP
60
A0
E0
A0
ENDCHAR
STARTCHAR b
ENCODING 98
SWIDTH 312 0
DWIDTH 4 0
BBX 3 4 0 0
BITMAP
80
E0
A0
E0
ENDCHAR
STARTCHAR c
ENCODING 99
SWIDTH 285 0
DWIDTH 4 0
BBX 3 4 0 0
BITMAP
E0
80
80
E0
ENDCHAR
STARTCHAR d
ENCODING 100
SWIDTH 312 0
DWIDTH 4 0
BBX 3 4 0 0
BITMAP
C0
A0
A0
C0
ENDCHAR
STARTCHAR e
ENCODING 101
SWIDTH 285 0
DWIDTH 4 0
BBX 3 4 0 0
BITMAP
E0
A0
C0
E0
ENDCHAR
STARTCHAR f
ENCODING 102
SWIDTH 250 0
DWIDTH 4 0
BBX 3 6 0 0
BITMAP
E0
00
80
80
80
80
ENDCHAR
STARTCHAR g
ENCODING 103
SWIDTH 312 0
DWIDTH 4 0
BBX 3 5 0 -1
BITMAP
60
A0
E0
20
60
ENDCHAR
STARTCHAR h
ENCODING 104
SWIDTH 312 0
DWIDTH 4 0
BBX 3 4 0 0
BITMAP
80
C0
A0
A0
ENDCHAR
STARTCHAR i
ENCODING 105
SWIDTH 125 0
DWIDTH 2 0
BBX 1 4 0 0
BITMAP
80
00
80
80
ENDCHAR
STARTCHAR j
ENCODING 106
SWIDTH 125 0
DWIDTH 2 0
BBX 3 8 -2 -2
BITMAP
20
00
20
20
20
20
20
E0
ENDCHAR
STARTCHAR k
ENCODING 107
SWIDTH 312 0
DWIDTH 4 0
BBX 4 6 0 0
BITMAP
80
80
90
F0
80
90
ENDCHAR
STARTCHAR l
ENCODING 108
SWIDTH 214 0
DWIDTH 3 0
BBX 2 4 0 0
BITMAP
80
80
80
C0
ENDCHAR
STARTCHAR m
ENCODING 109
SWIDTH 285 0
DWIDTH 4 0
BBX 3 4 0 0
BITMAP
A0
E0
A0
A0
ENDCHAR
STARTCHAR n
ENCODING 110
SWIDTH 312 0
DWIDTH 4 0
BBX 3 4 0 0
BITMAP
C0
A0
A0
A0
ENDCHAR
STARTCHAR o
ENCODING 111
SWIDTH 312 0
DWIDTH 4 0
BBX 3 4 0 0
BITMAP
E0
A0
A0
E0
ENDCHAR
STARTCHAR p
ENCODING 112
SWIDTH 285 0
DWIDTH 4 0
BBX 3 4 0 0
BITMAP
E0
A0
E0
80
ENDCHAR
STARTCHAR q
ENCODING 113
SWIDTH 312 0
DWIDTH 4 0
BBX 4 6 0 -2
BITMAP
90
90
90
D0
10
10
ENDCHAR
STARTCHAR r
ENCODING 114
SWIDTH 250 0
DWIDTH 4 0
BBX 3 4 0 0
BITMAP
60
80
80
80
ENDCHAR
STARTCHAR s
ENCODING 115
SWIDTH 285 0
DWIDTH 4 0
BBX 3 4 0 0
BITMAP
60
40
40
C0
ENDCHAR
STARTCHAR t
ENCODING 116
SWIDTH 285 0
DWIDTH 4 0
BBX 3 4 0 0
BITMAP
E0
40
40
40
ENDCHAR
STARTCHAR u
ENCODING 117
SWIDTH 357 0
DWIDTH 5 0
BBX 4 4 0 0
BITMAP
90
90
90
60
ENDCHAR
STARTCHAR v
ENCODING 118
SWIDTH 312 0
DWIDTH 4 0
BBX 4 4 0 0
BITMAP
90
90
90
E0
ENDCHAR
STARTCHAR w
ENCODING 119
SWIDTH 500 0
DWIDTH 7 0
BBX 6 4 0 0
BITMAP
94
94
94
DC
ENDCHAR
STARTCHAR x
ENCODING 120
SWIDTH 357 0
DWIDTH 5 0
BBX 4 4 0 0
BITMAP
90
60
60
90
ENDCHAR
STARTCHAR y
ENCODING 121
SWIDTH 285 0
DWIDTH 4 0
BBX 3 4 0 0
BITMAP
A0
A0
60
C0
ENDCHAR
STARTCHAR z
ENCODING 122
SWIDTH 312 0
DWIDTH 4 0
BBX 4 4 0 0
BITMAP
F0
F0
80
F0
ENDCHAR
STARTCHAR braceleft
ENCODING 123
SWIDTH 250 0
DWIDTH 4 0
BBX 2 6 1 0
BITMAP
C0
80
80
80
80
C0
ENDCHAR
STARTCHAR bar
ENCODING 124
SWIDTH 125 0
DWIDTH 2 0
BBX 1 6 0 0
BITMAP
80
80
80
80
80
80
ENDCHAR
STARTCHAR braceright
ENCODING 125
SWIDTH 250 0
DWIDTH 4 0
BBX 3 6 0 0
BITMAP
C0
40
60
40
40
C0
ENDCHAR
STARTCHAR asciitilde
ENCODING 126
SWIDTH 250 0
DWIDTH 4 0
BBX 3 1 0 3
BITMAP
E0
ENDCHAR
STARTCHAR degree
ENCODING 176
SWIDTH 214 0
DWIDTH 3 0
BBX 3 3 0 5
BITMAP
40
A0
40
ENDCHAR
STARTCHAR quoteleft
ENCODING 8216
SWIDTH 125 0
DWIDTH 2 0
BBX 1 2 0 4
BITMAP
80
80
ENDCHAR
STARTCHAR quoteright
ENCODING 8217
SWIDTH 125 0
DWIDTH 2 0
BBX 1 1 0 5
BITMAP
80
ENDCHAR
STARTCHAR quotedblleft
ENCODING 8220
SWIDTH 187 0
DWIDTH 3 0
BBX 2 2 0 4
BITMAP
C0
C0
ENDCHAR
STARTCHAR quotedblright
ENCODING 8221
SWIDTH 187 0
DWIDTH 3 0
BBX 2 1 0 5
BITMAP
C0
ENDCHAR
STARTCHAR .notdef
ENCODING 8233
SWIDTH 125 0
DWIDTH 2 0
BBX 1 1 0 0
BITMAP
00
ENDCHAR
ENDFONT
